<?xml version="1.0"?>
<!DOCTYPE svg PUBLIC "-//W3C//DTD SVG 1.1//EN" "http://www.w3.org/Graphics/SVG/1.1/DTD/svg11.dtd">
<svg version="1.1" xmlns="http://www.w3.org/2000/svg" xmlns:xlink="http://www.w3.org/1999/xlink" width="600px" height="600px" viewBox="0 0 4 4" preserveAspectRatio="xMidYMid">
  <defs>
    <g id="polygon" fill="white" stroke-width="0.01" stroke="black">
      <polygon points="1.8608643107361533,0.2675518959537762 1.7101081512664944,0.7809802244435465 1.4208091997860055,
      1.231138179817136 1.0164047368165234,1.5815566417226206 0.5296572068618877,1.803846790395255 1.151167991198512e-16,
      1.88 -0.5296572068618882,1.8038467903952549 -1.0164047368165237,1.5815566417226203 -1.4208091997860053,1.2311381798171361 -1.7101081512664942,
      0.780980224443547 -1.8608643107361533,0.26755189595377693 -1.8608643107361535,-0.26755189595377565 -1.7101081512664944,-0.7809802244435465 -1.4208091997860057,
      -1.2311381798171357 -1.0164047368165232,-1.5815566417226208 -0.5296572068618894,-1.8038467903952546 -3.453503973595536e-16,-1.88 0.5296572068618871,
      -1.803846790395255 1.0164047368165225,-1.581556641722621 1.4208091997860046,-1.231138179817137 1.7101081512664937,
      -0.7809802244435479 1.8608643107361533,-0.2675518959537764" />
      <line x1="1.8608643107361533" y1="0.2675518959537762" x2="-1.8608643107361533" y2="-0.26755189595377565" />
      <line x1="-1.8608643107361533" y1="0.2675518959537762" x2="1.8608643107361533" y2="-0.26755189595377565" />
      <line x1="-1.7101081512664942" y1="-0.7809802244435465" x2="1.7101081512664944" y2="0.7809802244435465" />
      <line x1="-1.4208091997860053" y1="-1.2311381798171361" x2="1.4208091997860053" y2="1.2311381798171361" />
      <line x1="-1.0164047368165237" y1="-1.5815566417226203" x2="1.0164047368165237" y2="1.5815566417226203" />
      <line x1="-0.5296572068618882" y1="-1.8038467903952549" x2="0.5296572068618882" y2="1.8038467903952549" />
      <line x1="1.151167991198512e-16" y1="-1.88" x2="-1.151167991198512e-16" y2="1.88" />
      <line x1="0.5296572068618882" y1="-1.8038467903952549" x2="-0.5296572068618882" y2="1.8038467903952549" />
      <line x1="1.0164047368165237" y1="-1.5815566417226203" x2="-1.0164047368165237" y2="1.5815566417226203" />
      <line x1="1.4208091997860053" y1="-1.2311381798171361" x2="-1.4208091997860053" y2="1.2311381798171361" />
      <line x1="1.7101081512664942" y1="-0.7809802244435465" x2="-1.7101081512664944" y2="0.7809802244435465" />
      <line x1="1.8608643107361533" y1="0.2675518959537762" x2="-1.8608643107361533" y2="-0.26755189595377565" />
      <animateTransform attributeName="transform" type="rotate" from="0 0 0" to="360 0 0" dur="10s" repeatCount="indefinite" />
    </g>
    <g id="triangle" stroke-width="0.01" stroke="black">
      <polygon points="2,3.5 2.4, 0.55, 3,3.5 " />
    </g>
    <g id="line" stroke-width="0.2" stroke="red">
      <line x1="0.9" y1="0.95" x2="5.6" y2="1.95" />
    </g>
  </defs>
  <!-- 1 -->
  <use xlink:href="#polygon" transform="scale(0.2,0.2) translate(2.25,2.25)" />
  <use xlink:href="#polygon" transform="scale(0.2,0.2) translate(9.05,3.6)" />
  <use xlink:href="#line" transform="scale(0.3,0.3) translate(0.5,0.5)" />
  <use xlink:href="#triangle" fill="purple" transform="scale(0.3,0.3) translate(1.3,1.4)" />
  <!-- 2 -->
  <use xlink:href="#polygon" transform="scale(0.1,0.1) translate(26.9,2.88)" />
  <use xlink:href="#polygon" transform="scale(0.1,0.1) translate(36,4.8)" />
  <use xlink:href="#line" transform="scale(0.2,0.2) translate(12.5,0.5)" />
  <use xlink:href="#triangle" fill="green" transform="scale(0.2,0.2) translate(13.3,1.4)" />
  <!-- 3 -->
  <use xlink:href="#polygon" transform="scale(0.25,0.25) translate(7,7.7)" />
  <use xlink:href="#polygon" transform="scale(0.25,0.25) translate(13.35,9)" />
  <use xlink:href="#line" transform="scale(0.35,0.35) translate(4,4.5)" />
  <use xlink:href="#triangle" fill="blue" transform="scale(0.35,0.35) translate(4.8,5.4)" />
</svg>